<?xml version="1.0" standalone="no"?>
<!DOCTYPE svg PUBLIC "-//W3C//DTD SVG 20010904//EN"
 "http://www.w3.org/TR/2001/REC-SVG-20010904/DTD/svg10.dtd">
<svg version="1.0" xmlns="http://www.w3.org/2000/svg"
 width="668.000000pt" height="668.000000pt" viewBox="0 0 668.000000 668.000000"
 preserveAspectRatio="xMidYMid meet">
<metadata>
Created by potrace 1.11, written by Peter Selinger 2001-2013
</metadata>
<g transform="translate(0.000000,668.000000) scale(0.100000,-0.100000)"
fill="#000000" stroke="none">
<path d="M2432 6514 c-96 -21 -291 -92 -352 -129 -186 -113 -291 -341 -285
-617 2 -79 11 -146 25 -193 54 -177 78 -238 142 -360 48 -93 77 -134 245 -355
11 -14 158 -209 328 -435 349 -464 411 -541 498 -621 155 -141 221 -99 264
171 4 28 8 408 8 845 0 784 0 796 -22 900 -29 133 -72 268 -118 362 -102 211
-313 393 -502 433 -58 13 -170 12 -231 -1z"/>
<path d="M4370 6413 c-163 -26 -367 -158 -485 -315 -68 -91 -182 -332 -211
-448 -33 -131 -37 -156 -49 -270 -4 -30 -8 -66 -10 -80 -3 -23 -7 -54 -21
-175 -2 -22 -6 -56 -9 -75 -2 -19 -7 -57 -10 -85 -3 -27 -7 -63 -9 -80 -2 -16
-7 -59 -11 -95 -4 -36 -9 -72 -10 -80 -1 -8 -6 -44 -10 -80 -3 -36 -8 -76 -10
-90 -2 -14 -6 -50 -10 -80 -3 -30 -8 -73 -11 -95 -34 -248 -41 -458 -18 -554
22 -97 82 -129 164 -86 95 49 202 153 711 686 30 31 135 141 234 244 254 264
261 272 319 350 140 187 244 419 262 584 31 280 -48 507 -221 636 -56 42 -238
132 -332 164 -59 21 -193 33 -253 24z"/>
<path d="M5655 4889 c-94 -15 -254 -70 -369 -126 -110 -54 -183 -100 -301
-193 -343 -269 -681 -535 -685 -540 -3 -3 -32 -25 -65 -50 -33 -25 -62 -47
-65 -50 -3 -3 -45 -37 -95 -75 -123 -94 -284 -258 -314 -319 -20 -40 -22 -55
-15 -85 11 -43 45 -63 149 -85 85 -18 575 -15 1475 8 229 7 251 9 434 51 51
12 189 61 256 92 204 94 392 296 440 473 28 103 31 161 15 253 -18 97 -89 293
-133 367 -93 152 -224 236 -425 273 -85 16 -222 19 -302 6z"/>
<path d="M1463 4821 c-38 -24 -62 -58 -69 -97 -2 -16 -9 -51 -14 -79 -33 -164
-40 -208 -40 -246 0 -59 -7 -69 -41 -59 -66 19 -143 25 -324 25 -245 0 -315
-11 -442 -72 -92 -43 -231 -176 -258 -247 -51 -134 47 -274 250 -359 67 -28
182 -64 228 -73 17 -2 33 -7 37 -9 3 -2 17 -6 31 -9 13 -2 45 -9 72 -15 26 -6
64 -14 85 -17 20 -4 44 -8 52 -9 8 -2 44 -6 80 -10 36 -4 72 -9 80 -11 8 -1
30 -3 48 -3 l33 -1 -4 -131 c-3 -72 -8 -133 -10 -136 -3 -3 -39 -7 -79 -9 -88
-4 -185 -16 -238 -29 -53 -14 -78 -21 -150 -43 -47 -14 -87 -26 -90 -27 -132
-40 -298 -158 -402 -286 -126 -155 -169 -338 -122 -519 62 -237 116 -345 219
-443 57 -54 180 -118 273 -142 91 -23 273 -31 358 -15 176 33 409 125 539 213
32 22 617 461 937 702 106 81 217 167 246 192 87 75 100 84 134 89 25 4 39 0
56 -17 35 -32 24 -74 -32 -121 -103 -89 -1082 -1078 -1130 -1142 -113 -153
-210 -342 -245 -481 -21 -87 -30 -254 -16 -344 24 -168 114 -314 251 -407 67
-46 278 -143 343 -158 66 -15 196 -14 261 2 116 29 252 113 361 221 105 105
182 233 252 422 56 150 63 180 102 454 14 99 27 194 30 210 2 17 7 53 10 80 3
28 10 73 15 100 5 28 12 73 15 100 4 28 8 62 10 78 2 15 9 64 15 110 11 82 12
91 25 177 4 25 8 56 10 70 2 14 11 77 20 140 26 175 24 389 -3 461 -15 39
-106 134 -196 203 -129 101 -168 116 -364 142 -26 4 -279 7 -562 8 -283 1
-520 5 -526 9 -8 4 -10 39 -8 104 5 134 8 143 42 139 15 -2 79 -7 142 -11 63
-4 133 -9 155 -11 22 -2 83 -6 135 -9 52 -3 118 -8 145 -10 180 -17 416 -29
551 -28 146 1 182 11 198 55 17 49 -12 88 -116 158 -93 63 -986 512 -1124 567
l-72 28 24 95 c14 52 27 111 30 130 2 19 7 45 9 57 9 39 18 126 18 171 1 79
-58 132 -154 139 -52 3 -70 1 -96 -16z m581 -1844 c17 -12 17 -15 2 -52 -20
-48 -66 -104 -177 -220 -83 -85 -90 -90 -128 -89 -51 2 -97 29 -138 83 -99
130 21 244 292 277 28 4 51 7 52 8 10 9 82 4 97 -7z m-850 -147 c39 -14 53
-55 51 -140 -2 -86 -26 -176 -60 -230 -75 -118 -373 -241 -479 -196 -51 21
-64 57 -55 145 11 99 48 170 132 252 122 120 323 203 411 169z"/>
<path d="M3800 3218 c-97 -20 -116 -92 -52 -196 58 -96 139 -187 329 -369 97
-92 199 -190 228 -218 29 -27 135 -129 236 -226 101 -97 227 -218 279 -268
166 -160 312 -260 497 -341 169 -74 340 -100 509 -78 116 16 250 75 329 145
70 61 174 242 227 393 45 129 42 260 -8 388 -57 145 -179 297 -308 385 -56 39
-216 118 -301 150 -93 36 -244 73 -325 82 -36 3 -76 8 -90 10 -14 2 -50 6 -80
10 -30 3 -66 8 -80 10 -14 2 -52 7 -85 10 -33 4 -71 8 -85 10 -14 2 -54 7 -90
10 -36 4 -73 9 -83 11 -10 2 -48 6 -85 10 -36 3 -75 8 -86 10 -11 2 -50 6 -86
10 -36 3 -72 7 -80 9 -8 2 -44 6 -80 9 -36 4 -76 9 -90 11 -14 2 -50 7 -80 11
-30 3 -66 8 -80 10 -59 10 -339 11 -380 2z"/>
<path d="M3499 2926 c-25 -12 -64 -81 -74 -131 -26 -131 -29 -249 -20 -640 2
-82 6 -287 10 -455 10 -491 14 -593 25 -666 26 -161 92 -368 155 -479 72 -130
186 -249 308 -323 144 -87 301 -107 467 -58 120 35 252 89 311 126 110 71 195
196 239 350 30 108 35 288 10 400 -46 211 -157 446 -283 602 -23 29 -92 116
-152 193 -61 77 -115 147 -122 155 -7 8 -136 173 -288 365 -267 339 -418 510
-479 542 -50 26 -82 32 -107 19z"/>
</g>
</svg>
