<svg xmlns="http://www.w3.org/2000/svg" width="1919.999" height="400" viewBox="0 0 1919.999 400">
  <path id="前面オブジェクトで型抜き_3" data-name="前面オブジェクトで型抜き 3" d="M1920.5,400.5H1261.019c12.185-1.064,22.763-3.891,31.439-8.4a51.412,51.412,0,0,0,17.074-13.943,44.348,44.348,0,0,0,7.057-13.068,29.72,29.72,0,0,0,1.387-5.781c.06-.429,6.65-47.434,15.068-104.7,7.745-52.683,18.633-124.839,26.524-169.407a77.831,77.831,0,0,0,1.9-11.518,80.7,80.7,0,0,0,.2-12.676c-.437-6.589-1.99-15.6-6.907-21.107-1.175-1.316-2.22-2.647-3.23-3.934l-.02-.026c-3.25-4.142-6.319-8.054-13.355-11.43a65.571,65.571,0,0,0-14.006-4.574,184.831,184.831,0,0,0-22.934-3.373c-29.744-4.439-63.106-8.065-99.158-10.778-33-2.483-69.021-4.259-107.075-5.28H1920.5V69.522l-158.7-5.815-158.223-8.749a108.2,108.2,0,0,0-18.543-1.53,97.828,97.828,0,0,0-15.417,1.166,66.977,66.977,0,0,0-16.115,4.562c-11.964,5.212-19.98,13.857-23.825,25.695-3.087,9.5-7.847,27.76-14.148,54.265-5.041,21.2-11.074,47.708-17.932,78.776-11.192,50.7-20.856,96.681-21.921,101.757l-.01.047a52.131,52.131,0,0,0-2.7,12.856,48.166,48.166,0,0,0,.505,12.6,38.172,38.172,0,0,0,5.192,13.642c8.479,13.521,25.643,21.437,51.014,23.529,2.709.223,5.778.479,9.027.75l.448.037h.009c40.482,3.374,124.719,10.4,203.417,12.754,27.337.82,56.762,1.235,87.458,1.235,49.556,0,86.426-1.095,90.467-1.219V400.5Zm-683.673,0H694.136c3.089-.372,6.093-.7,9.184-1.011,46.959-5.846,94.394-10.209,140.985-12.966,41.384-2.45,83.088-3.691,123.954-3.691,27.592,0,55.42.567,82.712,1.684,23.674.97,47.6,2.381,71.111,4.2,42.587,3.286,76.838,7.292,104.725,10.778,3.415.427,6.787.766,10.021,1.009Zm-601.27,0H.5V.5H922.464C860.593,1.927,795.285,4.766,728.356,8.939c-38.36,2.392-76.468,5.181-113.265,8.29a113.849,113.849,0,0,0-18.58,3.019,72.362,72.362,0,0,0-14.11,5.124,44.7,44.7,0,0,0-17.186,14.26,38.639,38.639,0,0,0-5.537,11.818,43.841,43.841,0,0,0-1.552,10.77A42.672,42.672,0,0,0,559.213,73.1L599.407,359.3a34.8,34.8,0,0,0,.505,5.039,47.747,47.747,0,0,0,3.539,11.747,40.984,40.984,0,0,0,9.6,13.4,44.573,44.573,0,0,0,18.7,10c1.326.361,2.6.7,3.791,1.009h.007ZM336.938,52.163a108.915,108.915,0,0,0-18.546,1.53l-158.266,8.75L.879,68.276V394.6c.353.011,38.666,1.235,90.992,1.235,30.7,0,60.138-.415,87.482-1.235,78.72-2.359,162.979-9.38,203.472-12.754l.3-.025c3.308-.276,6.432-.536,9.185-.763,25.381-2.092,42.55-10.01,51.03-23.533a38.188,38.188,0,0,0,5.191-13.641,48.163,48.163,0,0,0,.505-12.6,52.1,52.1,0,0,0-2.7-12.853c-.1-.487-10.324-49.207-21.938-101.8-6.86-31.068-12.9-57.572-17.937-78.776-6.3-26.509-11.065-44.766-14.151-54.265-3.847-11.837-11.865-20.482-23.833-25.695a66.994,66.994,0,0,0-16.12-4.562A97.861,97.861,0,0,0,336.938,52.163Z" transform="translate(-0.501 -0.5)" fill="#fff"/>
</svg>
