<svg xmlns="http://www.w3.org/2000/svg" width="800.001" height="420" viewBox="0 0 800.001 420">
  <path id="前面オブジェクトで型抜き_4" data-name="前面オブジェクトで型抜き 4" d="M800,420H0V73.171a40.564,40.564,0,0,0,1.092,9.581L41.1,365.426a34.141,34.141,0,0,0,.5,4.976A46.874,46.874,0,0,0,45.127,382a40.49,40.49,0,0,0,9.56,13.235A44.478,44.478,0,0,0,73.3,405.117C86.291,408.63,94.258,410,101.722,410c5.705,0,11.117-.78,18.606-1.86,6.158-.888,13.822-1.992,24.205-3.022,46.739-5.774,93.955-10.082,140.335-12.806,41.188-2.419,82.7-3.646,123.382-3.646,27.466,0,55.165.56,82.329,1.663,23.56.957,47.375,2.351,70.782,4.144,42.4,3.246,76.485,7.2,104.239,10.645a184.005,184.005,0,0,0,22.484,1.479c14.661,0,27.373-2.164,37.783-6.433a54.079,54.079,0,0,0,20.453-14.152,44.22,44.22,0,0,0,8.4-14.152,30.1,30.1,0,0,0,1.628-6.433c.066-.467,6.693-47.349,15-103.407,7.71-52.036,18.548-123.3,26.4-167.316a76.3,76.3,0,0,0,1.895-11.375c.218-2.351.338-4.7.356-6.988V420Zm0-344.9h0c-.012-1.448-.065-2.892-.159-4.291-.435-6.508-1.981-15.408-6.874-20.847-1.178-1.309-2.224-2.631-3.236-3.911-6.358-8.037-12.362-15.628-50.065-19.136C663.871,15.691,567.007,10,451.766,10,290.494,10,135.029,21.012,56.713,27.576,7.492,31.7.053,57.713,0,72.851V0H800Z" fill="#fff"/>
</svg>
